<?xml version="1.0" standalone="no"?><!DOCTYPE svg PUBLIC "-//W3C//DTD SVG 1.1//EN" "http://www.w3.org/Graphics/SVG/1.1/DTD/svg11.dtd"><svg t="1653131533682" class="icon" viewBox="0 0 1024 1024" version="1.1" xmlns="http://www.w3.org/2000/svg" p-id="1652" xmlns:xlink="http://www.w3.org/1999/xlink" width="32" height="32"><defs><style type="text/css">@font-face { font-family: feedback-iconfont; src: url("//at.alicdn.com/t/font_1031158_u69w8yhxdu.woff2?t=1630033759944") format("woff2"), url("//at.alicdn.com/t/font_1031158_u69w8yhxdu.woff?t=1630033759944") format("woff"), url("//at.alicdn.com/t/font_1031158_u69w8yhxdu.ttf?t=1630033759944") format("truetype"); }
</style></defs><path d="M641.708666 630.535697c7.66354-17.503653 11.894911-36.843116 11.894911-57.159838 0-79.012541-64.044642-143.057183-143.058207-143.057183-27.322275 0-52.828182 7.653307-74.54274 20.935822L391.77636 407.037437c33.489742-23.940249 74.483388-38.030152 118.769011-38.030152 112.88193 0 204.368574 91.496877 204.368574 204.367551 0 44.286646-14.090926 85.300758-38.040385 118.750591l-0.078795-0.079818c-1.51654 3.671623-3.752464 7.142677-6.786567 10.136871-11.974729 11.975752-31.274284 12.076036-43.308365 0.039909l-43.407626-43.388183c-11.955286-11.973706-12.035104-31.292704 0.020466-43.346227 11.974729-11.975752 31.293727-12.05557 43.347251-0.020466L641.708666 630.535697z" fill="#317AFF" p-id="1653"></path><path d="M327.552639 482.298538c-13.691837 27.421536-21.375843 58.346873-21.375843 91.076298 0 112.882953 91.50711 204.368574 204.368574 204.368574 38.997176 0 75.441203-10.937097 106.454544-29.895891l-45.184085-45.165666c-18.560728 8.821923-39.33589 13.751189-61.270459 13.751189-79.013565 0-143.058207-64.044642-143.058207-143.058207 0-10.019191 1.01819-19.818371 2.994194-29.258371l8.921183 8.901741c12.054547 12.053524 31.373545 11.954263 43.328831 0 12.054547-12.05557 11.995195-31.383778 0.020466-43.349297l-43.388183-43.38716c-12.053524-12.045337-31.373545-11.955286-43.348274 0.020466C331.463716 470.862068 328.649624 476.460576 327.552639 482.298538z" fill="#317AFF" p-id="1654"></path><path d="M919.182234 266.824021 715.532021 266.824021l-43.528376-86.158289c-10.177803-20.177552-36.762275-36.462446-59.393715-36.462446L408.481833 144.203286c-22.652929 0-49.15656 16.47523-59.254545 36.791951l-42.61047 85.828784L101.908506 266.824021c-22.591531 0-40.97318 18.222013-40.97318 40.703027l0 531.687388c0 22.353101 18.34174 40.714284 40.97318 40.714284l817.273728 0c22.611997 0 40.97318-18.222013 40.97318-40.714284L960.155415 307.527049C960.155415 285.173948 941.813674 266.824021 919.182234 266.824021zM898.845047 798.179858c0 11.276834-9.260921 20.438495-20.377096 20.438495L142.62279 818.618353c-11.256368 0-20.377096-9.142218-20.377096-20.438495l0-449.599811c0-11.285021 9.260921-20.445658 20.377096-20.445658l204.427926 0 30.435173-61.310368 21.314445-42.950208c5.02955-10.137895 18.222013-18.36016 29.577642-18.36016l164.652014 0c11.316743 0 24.52865 8.042163 29.597085 18.092054l21.834284 43.218314 30.975479 61.310368 203.03009 0c11.256368 0 20.377096 9.141194 20.377096 20.445658L898.844024 798.179858z" fill="#317AFF" p-id="1655"></path></svg>