<?xml version="1.0" standalone="no"?><!DOCTYPE svg PUBLIC "-//W3C//DTD SVG 1.1//EN" "http://www.w3.org/Graphics/SVG/1.1/DTD/svg11.dtd"><svg t="1653132294253" class="icon" viewBox="0 0 1024 1024" version="1.1" xmlns="http://www.w3.org/2000/svg" p-id="1682" xmlns:xlink="http://www.w3.org/1999/xlink" width="32" height="32"><defs><style type="text/css">@font-face { font-family: feedback-iconfont; src: url("//at.alicdn.com/t/font_1031158_u69w8yhxdu.woff2?t=1630033759944") format("woff2"), url("//at.alicdn.com/t/font_1031158_u69w8yhxdu.woff?t=1630033759944") format("woff"), url("//at.alicdn.com/t/font_1031158_u69w8yhxdu.ttf?t=1630033759944") format("truetype"); }
</style></defs><path d="M468.1 320.3V158.7c0.9-8.1-1.3-16.4-7.5-22.7-10.9-10.8-28.4-10.8-39.3 0L147.6 436.1c-5.8 5.7-8.3 13.4-7.9 20.9-0.4 7.5 2.1 15.1 7.9 20.9l272.2 298.4c10.2 8.7 28.8 13.6 40.8 1.6 6.2-6.2 8.9-11.4 8-19.5V594c180.8 0 344.4 130.2 376.8 301.6 21.9-50.2 34.1-105.6 34.1-163.9 0.1-227.2-184.1-411.4-411.4-411.4z" fill="#317AFF" p-id="1683"></path></svg>