<?xml version="1.0" standalone="no"?><!DOCTYPE svg PUBLIC "-//W3C//DTD SVG 1.1//EN" "http://www.w3.org/Graphics/SVG/1.1/DTD/svg11.dtd"><svg t="1653627451313" class="icon" viewBox="0 0 1024 1024" version="1.1" xmlns="http://www.w3.org/2000/svg" p-id="2946" xmlns:xlink="http://www.w3.org/1999/xlink" ><defs><style type="text/css">@font-face { font-family: feedback-iconfont; src: url("//at.alicdn.com/t/font_1031158_u69w8yhxdu.woff2?t=1630033759944") format("woff2"), url("//at.alicdn.com/t/font_1031158_u69w8yhxdu.woff?t=1630033759944") format("woff"), url("//at.alicdn.com/t/font_1031158_u69w8yhxdu.ttf?t=1630033759944") format("truetype"); }
</style></defs><path d="M507.168 473.232L716.48 263.936a16 16 0 0 1 22.624 0l11.312 11.312a16 16 0 0 1 0 22.624L541.12 507.168 750.4 716.48a16 16 0 0 1 0 22.624l-11.312 11.312a16 16 0 0 1-22.624 0L507.168 541.12 297.872 750.4a16 16 0 0 1-22.624 0l-11.312-11.312a16 16 0 0 1 0-22.624l209.296-209.312-209.296-209.296a16 16 0 0 1 0-22.624l11.312-11.312a16 16 0 0 1 22.624 0l209.296 209.296z" p-id="2947"></path></svg>