<?xml version="1.0" standalone="no"?><!DOCTYPE svg PUBLIC "-//W3C//DTD SVG 1.1//EN" "http://www.w3.org/Graphics/SVG/1.1/DTD/svg11.dtd"><svg t="1648376404134" class="icon" viewBox="0 0 1024 1024" version="1.1" xmlns="http://www.w3.org/2000/svg" p-id="3070" xmlns:xlink="http://www.w3.org/1999/xlink"><defs><style type="text/css">@font-face { font-family: feedback-iconfont; src: url("//at.alicdn.com/t/font_1031158_u69w8yhxdu.woff2?t=1630033759944") format("woff2"), url("//at.alicdn.com/t/font_1031158_u69w8yhxdu.woff?t=1630033759944") format("woff"), url("//at.alicdn.com/t/font_1031158_u69w8yhxdu.ttf?t=1630033759944") format("truetype"); }
</style></defs><path d="M544.581818 570.181818c72.145455-32.581818 118.690909-104.727273 118.690909-186.181818 0-51.2-18.618182-100.072727-53.527272-137.309091-20.945455-20.945455-46.545455-39.563636-72.145455-51.2l-20.945455-6.981818c-4.654545-2.327273-9.309091-2.327273-16.290909-4.654546-4.654545 0-9.309091-2.327273-13.963636-2.327272h-25.6c-111.709091 0-204.8 90.763636-204.8 204.8 0 79.127273 46.545455 148.945455 114.036364 181.527272-109.381818 34.909091-188.509091 139.636364-188.509091 260.654546v18.618182h546.909091v-18.618182c0-20.945455-2.327273-41.890909-6.981819-62.836364-20.945455-93.090909-88.436364-165.236364-176.872727-195.490909z m86.109091-186.181818c0 67.490909-39.563636 128-100.072727 153.6 0 0-2.327273 0-4.654546 2.327273-4.654545 2.327273-9.309091 4.654545-16.290909 4.654545-2.327273 0-2.327273 0-4.654545 2.327273-2.327273 0-6.981818 2.327273-9.309091 2.327273h-2.327273c-4.654545 0-9.309091 2.327273-13.963636 2.327272h-16.290909c-93.090909 0-167.563636-76.8-167.563637-167.563636s76.8-167.563636 167.563637-167.563636h2.327272c9.309091 0 16.290909 0 25.6 2.327272h4.654546c4.654545 0 6.981818 2.327273 11.636364 2.327273 2.327273 0 2.327273 0 4.654545 2.327273 4.654545 2.327273 9.309091 2.327273 13.963636 4.654545 23.272727 9.309091 44.218182 23.272727 60.509091 41.890909 27.927273 30.254545 44.218182 72.145455 44.218182 114.036364zM337.454545 809.890909H216.436364c9.309091-123.345455 111.709091-221.090909 237.381818-221.090909 9.309091 0 20.945455 0 30.254545 2.327273h4.654546c11.636364 2.327273 20.945455 4.654545 32.581818 6.981818 83.781818 23.272727 146.618182 90.763636 167.563636 174.545454 2.327273 11.636364 4.654545 23.272727 4.654546 37.236364H337.454545z" fill="#31343b" p-id="3071"></path><path d="M700.509091 558.545455c53.527273-27.927273 90.763636-83.781818 90.763636-151.272728 0-83.781818-62.836364-155.927273-144.290909-167.563636-9.309091-2.327273-18.618182 4.654545-18.618182 13.963636-2.327273 9.309091 4.654545 18.618182 13.963637 18.618182 65.163636 9.309091 114.036364 67.490909 114.036363 132.654546 0 74.472727-60.509091 134.981818-134.981818 134.981818h-4.654545c-9.309091 0-18.618182 6.981818-18.618182 18.618182s6.981818 18.618182 18.618182 18.618181c100.072727 0 181.527273 76.8 190.836363 174.545455h-58.181818c-9.309091 0-18.618182 6.981818-18.618182 18.618182s6.981818 18.618182 18.618182 18.618182h93.090909V768c0-95.418182-58.181818-176.872727-141.963636-209.454545z" fill="#31343b" p-id="3072"></path></svg>