<?xml version="1.0" standalone="no"?><!DOCTYPE svg PUBLIC "-//W3C//DTD SVG 1.1//EN" "http://www.w3.org/Graphics/SVG/1.1/DTD/svg11.dtd"><svg t="1648374060016" class="icon" viewBox="0 0 1024 1024" version="1.1" xmlns="http://www.w3.org/2000/svg" p-id="2362" xmlns:xlink="http://www.w3.org/1999/xlink"><defs><style type="text/css">@font-face { font-family: feedback-iconfont; src: url("//at.alicdn.com/t/font_1031158_u69w8yhxdu.woff2?t=1630033759944") format("woff2"), url("//at.alicdn.com/t/font_1031158_u69w8yhxdu.woff?t=1630033759944") format("woff"), url("//at.alicdn.com/t/font_1031158_u69w8yhxdu.ttf?t=1630033759944") format("truetype"); }
</style></defs><path d="M197.632 211.626667a128.682667 128.682667 0 0 1 28.330667-3.072 128.682667 128.682667 0 0 0-28.330667 3.072zM798.037333 208.554667a128.682667 128.682667 0 0 1 28.330667 3.072 128.682667 128.682667 0 0 0-28.330667-3.072zM829.781333 212.650667a136.533333 136.533333 0 0 1 22.869334 7.168 136.533333 136.533333 0 0 0-22.869334-7.168zM170.666667 219.818667a136.533333 136.533333 0 0 1 22.869333-7.168 136.533333 136.533333 0 0 0-22.869333 7.168z" fill="#2983FC" p-id="2363"></path><path d="M126.976 251.221333a136.533333 136.533333 0 0 0-37.546667 93.866667v383.317333a136.533333 136.533333 0 0 0 136.533334 136.533334h572.074666a136.533333 136.533333 0 0 0 136.533334-136.533334V345.088a136.533333 136.533333 0 0 0-37.546667-93.866667l-288.085333 288.085334a136.533333 136.533333 0 0 1-193.194667 0L127.317333 250.88z" fill="#2983FC" p-id="2364"></path><path d="M194.218667 212.650667h3.413333zM853.333333 219.818667zM826.368 211.626667h3.413333zM170.666667 220.501333z" fill="#2983FC" p-id="2365"></path><path d="M440.32 496.64a106.496 106.496 0 0 0 150.186667 0l273.066666-273.066667-10.24-3.072a136.533333 136.533333 0 0 0-22.869333-7.168h-3.413333a128.682667 128.682667 0 0 0-28.330667-3.072H225.962667a128.682667 128.682667 0 0 0-28.330667 3.072h-3.413333a136.533333 136.533333 0 0 0-23.552 6.485334l-3.754667 2.389333z" fill="#2983FC" p-id="2366"></path></svg>