<?xml version="1.0" standalone="no"?><!DOCTYPE svg PUBLIC "-//W3C//DTD SVG 1.1//EN" "http://www.w3.org/Graphics/SVG/1.1/DTD/svg11.dtd"><svg t="1648376385399" class="icon" viewBox="0 0 1024 1024" version="1.1" xmlns="http://www.w3.org/2000/svg" p-id="2929" xmlns:xlink="http://www.w3.org/1999/xlink"><defs><style type="text/css">@font-face { font-family: feedback-iconfont; src: url("//at.alicdn.com/t/font_1031158_u69w8yhxdu.woff2?t=1630033759944") format("woff2"), url("//at.alicdn.com/t/font_1031158_u69w8yhxdu.woff?t=1630033759944") format("woff"), url("//at.alicdn.com/t/font_1031158_u69w8yhxdu.ttf?t=1630033759944") format("truetype"); }
</style></defs><path d="M838.8 150.79c-9.94-2.14-20.13-3.23-30.34-3.24h-592.7c-10.33 0-20.75 1.13-29.7 3.12C117.12 162.76 67.1 222.38 67.1 292.42v448.72c0 74.75 60.82 135.56 135.56 135.56h618.87c74.75 0 135.56-60.82 135.56-135.56V292.43c0.02-69.83-49.69-129.3-118.29-141.64z m-30.38 58.86c5.12 0.01 10.22 0.72 15.25 1.66L544.19 490.79c-8.57 8.57-19.72 13.44-31.39 13.72-11.11 0.57-21.38-3.75-28.92-11.28L201.82 211.18c4.65-0.8 9.31-1.53 13.94-1.53h592.66zM895 741.14c0 40.51-32.95 73.46-73.46 73.46H202.66c-40.51 0-73.46-32.95-73.46-73.46V292.42c0-18.41 6.29-35.41 16.82-49.23l293.94 293.94c19.07 19.07 44.47 29.48 71.77 29.48 0.84 0 1.68-0.01 2.52-0.03 27.71-0.65 53.93-11.97 73.85-31.89l290.74-290.75c10.08 13.67 16.17 30.37 16.16 48.47v448.73z" fill="#666666" p-id="2930"></path></svg>